<?xml version="1.0" encoding="utf-8"?>
<!-- Generator: Adobe Illustrator 15.0.0, SVG Export Plug-In . SVG Version: 6.00 Build 0)  -->
<!DOCTYPE svg PUBLIC "-//W3C//DTD SVG 1.1//EN" "http://www.w3.org/Graphics/SVG/1.1/DTD/svg11.dtd">
<svg version="1.1" id="Layer_1" xmlns="http://www.w3.org/2000/svg" xmlns:xlink="http://www.w3.org/1999/xlink" x="0px" y="0px"
	 width="212.245px" height="66.327px" viewBox="0 0 212.245 66.327" enable-background="new 0 0 212.245 66.327"
	 xml:space="preserve">
<g>
	<g>
		<path fill="#FFFFFF" d="M82.356,42.096l-7.353-11.923h-0.398v11.923h-5.366V13.478h8.745c4.849,0,9.142,3.181,9.142,8.348
			c0,4.292-3.179,7.155-6.359,7.95l8.347,12.32H82.356z M77.189,17.852h-2.584v7.95h2.584c2.385,0,4.372-1.192,4.372-3.975
			C81.561,19.044,79.574,17.852,77.189,17.852z"/>
		<path fill="#FFFFFF" d="M95.273,35.341c0.398,1.989,1.989,3.578,3.976,3.578s3.18-0.396,4.65-1.987l3.738,1.949
			c-2.028,2.821-4.412,3.814-8.388,3.814c-5.565,0-9.143-3.775-9.143-8.943c0-5.167,3.577-8.944,9.143-8.944
			c5.208,0,8.945,3.976,8.945,8.546v1.988H95.273z M99.25,28.981c-2.385,0-3.578,1.59-3.976,3.18h7.953
			C102.828,30.572,101.636,28.981,99.25,28.981z"/>
		<path fill="#FFFFFF" d="M122.504,40.508h-0.082c-1.509,1.588-3.498,2.186-5.881,2.186c-3.577,0-6.36-1.43-6.36-4.968
			c0-4.771,3.577-5.963,9.144-5.963h3.18c0-2.782-0.795-3.18-2.383-3.18c-3.58,0-5.964,0.794-7.554,1.589l-1.194-3.578
			c2.784-1.191,5.565-1.789,9.541-1.789c2.782,0,6.359,0.598,6.359,6.161v11.128h-4.769V40.508z M119.324,34.944
			c-3.182,0-3.977,0.794-3.977,2.385c0,0.795,0.795,1.589,2.384,1.589c1.99,0,4.375-1.987,4.773-3.975H119.324z"/>
		<path fill="#FFFFFF" d="M143.373,42.096v-1.588h-0.082c-1.312,1.588-3.298,2.186-5.682,2.186c-3.978,0-7.554-3.379-7.554-8.943
			s3.576-8.944,7.554-8.944c2.384,0,4.37,0.598,5.682,2.186h0.082V13.081h4.968v29.015H143.373z M139.198,29.378
			c-1.988,0-3.976,1.59-3.976,4.373s1.987,4.374,3.976,4.374c2.384,0,4.174-1.591,4.174-4.374S141.582,29.378,139.198,29.378z"/>
		<path fill="#FFFFFF" d="M173.779,42.096v-9.54c0-1.985-0.795-3.178-2.783-3.178c-1.987,0-2.981,1.392-2.981,3.178v9.54h-4.97
			v-9.54c0-1.985-0.794-3.178-2.781-3.178c-1.591,0-2.98,1.59-2.98,3.178v9.54h-4.969V25.405h4.969v1.588h0.079
			c1.31-1.588,3.141-2.186,5.287-2.186c2.146,0,3.577,0.994,4.372,2.583c1.988-1.986,3.577-2.583,5.963-2.583
			c3.576,0,5.763,2.583,5.763,5.765v11.524H173.779z"/>
		<path fill="#FFFFFF" d="M182.523,22.224v-5.565h4.969v5.565H182.523z M182.523,42.096V25.405h4.969v16.691H182.523z"/>
		<path fill="#FFFFFF" d="M191.464,42.096V13.081h4.971v29.015H191.464z"/>
		<path fill="#FFFFFF" d="M200.411,42.096V13.081h4.969v29.015H200.411z"/>
	</g>
	<g>
		<polygon fill="#FFFFFF" points="35.161,19.329 35.161,23.378 46.954,20.172 46.954,16.122 		"/>
		<polygon fill="#FFFFFF" points="25.346,19.329 13.552,16.122 13.552,20.172 25.346,23.378 		"/>
		<polygon fill="#FFFFFF" points="35.161,27.553 35.161,31.601 46.954,28.396 46.954,24.347 		"/>
		<polygon fill="#FFFFFF" points="25.346,27.553 13.552,24.347 13.552,28.396 25.346,31.601 		"/>
		<polygon fill="#FFFFFF" points="35.161,35.777 35.161,39.825 46.954,36.62 46.954,32.571 		"/>
		<polygon fill="#FFFFFF" points="25.346,35.777 13.552,32.571 13.552,36.62 25.346,39.825 		"/>
		<path fill="none" d="M25.72,15.228l-14.948-4.05v28.631c0.011,0.074,0.13,0.227,0.207,0.26l17.147,4.663V16.893
			C27.648,16.336,26.833,15.575,25.72,15.228z"/>
		<path fill="none" d="M32.375,44.736l17.165-4.671c0.069-0.03,0.188-0.183,0.199-0.265l-0.002-28.623L34.821,15.25
			c-1.232,0.335-2.07,1.243-2.481,1.792c0.021,0.16,0.035,0.323,0.035,0.489C32.375,18.17,32.375,38.34,32.375,44.736z"/>
		<path fill="#FFFFFF" d="M50.469,7.056c-0.307,0-0.62,0.041-0.929,0.127L33.798,11.49c-1.521,0.415-2.685,1.219-3.522,2.016
			c0.778,0.73,1.864,2.001,2.064,3.537c0.411-0.549,1.249-1.458,2.481-1.792l14.915-4.073L49.739,39.8
			c-0.011,0.083-0.13,0.235-0.199,0.265l-17.165,4.671c0,1.208,0,1.928,0,1.928c0,0.73,0.088,1.417,0.233,2.056l17.957-4.883
			c1.755-0.476,3.079-2.206,3.079-4.028v-29.49C53.645,8.46,52.28,7.056,50.469,7.056z"/>
		<path fill="#FFFFFF" d="M28.126,44.731l-17.147-4.663c-0.077-0.033-0.196-0.186-0.207-0.26V11.177l14.948,4.05
			c1.112,0.348,1.928,1.108,2.406,1.666v-4.88c-0.401-0.199-0.83-0.378-1.295-0.52l-15.863-4.31c-0.31-0.086-0.62-0.127-0.929-0.127
			c-1.808,0-3.174,1.404-3.174,3.262v29.49c0,1.822,1.324,3.552,3.08,4.028l18.295,4.97c-0.076-0.737-0.114-1.452-0.114-2.151
			V44.731z"/>
		<path fill="#70B32D" d="M32.375,44.736c0-6.396,0-26.566,0-27.204c0-0.167-0.015-0.329-0.035-0.489
			c-0.2-1.536-1.286-2.807-2.064-3.537c-1.143-1.071-2.15-1.497-2.15-1.497v0.004v4.88v27.838v1.924c0,0.7,0.038,1.414,0.114,2.151
			c0.164,1.577,0.52,3.265,1.183,5.194c0.638,1.856,1.739,3.715,3.244,5.18c0.167,0.163,0.329,0.1,0.353-0.132l0.413-4.006
			l2.885-0.56c0.229-0.042,0.243-0.155,0.037-0.265c-0.965-0.513-1.574-1.14-2.003-1.719c-0.672-0.926-1.385-2.209-1.741-3.779
			c-0.146-0.639-0.233-1.325-0.233-2.056C32.375,46.664,32.375,45.944,32.375,44.736z"/>
	</g>
</g>
</svg>
