<?xml version="1.0" encoding="utf-8"?>
<!-- Generator: Adobe Illustrator 15.0.0, SVG Export Plug-In  -->
<!DOCTYPE svg PUBLIC "-//W3C//DTD SVG 1.1//EN" "http://www.w3.org/Graphics/SVG/1.1/DTD/svg11.dtd" [
	<!ENTITY ns_flows "http://ns.adobe.com/Flows/1.0/">
]>
<svg version="1.1"
	 xmlns="http://www.w3.org/2000/svg" xmlns:xlink="http://www.w3.org/1999/xlink" xmlns:a="http://ns.adobe.com/AdobeSVGViewerExtensions/3.0/"
	 x="0px" y="0px" width="120px" height="30px" viewBox="-4 -3 120 30" overflow="visible" enable-background="new -4 -3 120 30"
	 xml:space="preserve">
<defs>
</defs>
<path fill="#FFFFFF" d="M9.535,3.495L0,13.057l1.793,1.379l7.742-7.764l7.74,7.764l1.793-1.379L9.535,3.495z M2.209,15.98L2,21h6v-5
	h3v5h6l-0.21-5.021L9.535,8.726L2.209,15.98z"/>
<path fill="#FFFFFF" d="M52.823,12.498L44.754,9.97l2.036-3.93l-3.934,2.034L40.331,0l-2.532,8.071L33.871,6.04l2.033,3.929
	l-8.069,2.529l8.069,2.529l-2.033,3.932l3.928-2.033l2.532,8.07l2.528-8.072l3.928,2.033l-2.033-3.93L52.823,12.498z M40.329,14.251
	c-0.965,0-1.747-0.782-1.747-1.747s0.782-1.748,1.747-1.748c0.965,0,1.747,0.783,1.747,1.748S41.293,14.251,40.329,14.251z"/>
<path fill="#FFFFFF" d="M79.68,10.328c-0.479-4.025-5.059-6.83-10.223-6.265c-5.164,0.566-8.962,4.289-8.48,8.314
	c0.254,2.128,1.654,3.916,3.682,5.042c0.1,0.894-0.236,2.026-1.812,3.19c-0.643,0.478,2.607,1.091,5.645-1.981
	c0.869,0.104,1.779,0.113,2.713,0.015C76.365,18.075,80.162,14.354,79.68,10.328z M73.262,11.826l-2.615,2.79
	c-0.082,0.089-0.195,0.139-0.314,0.139c-0.121,0-0.234-0.05-0.316-0.139l-2.615-2.79c-0.35-0.349-0.541-0.812-0.541-1.305
	s0.191-0.956,0.541-1.305c0.35-0.349,0.812-0.54,1.307-0.54c0.49,0,0.955,0.191,1.305,0.54c0.129,0.13,0.238,0.276,0.322,0.435
	c0.086-0.158,0.193-0.305,0.322-0.435c0.35-0.349,0.812-0.54,1.307-0.54c0.492,0,0.955,0.191,1.305,0.54
	c0.349,0.349,0.541,0.812,0.541,1.305S73.609,11.477,73.262,11.826z"/>
<path fill="none" d="M101.957,8.675c-0.492,0-0.955,0.191-1.305,0.54c-0.131,0.13-0.238,0.276-0.322,0.435
	c-0.086-0.158-0.193-0.305-0.324-0.435c-0.348-0.349-0.812-0.54-1.305-0.54c-0.493,0-0.957,0.191-1.305,0.54
	c-0.352,0.349-0.541,0.812-0.541,1.305s0.189,0.956,0.541,1.305l2.611,2.79c0.082,0.089,0.197,0.139,0.318,0.139
	s0.234-0.05,0.316-0.139l2.613-2.79c0.35-0.349,0.541-0.812,0.541-1.305s-0.191-0.956-0.541-1.305
	C102.912,8.867,102.451,8.675,101.957,8.675z"/>
<path fill="#FFFFFF" d="M103.703,7.143c0-0.935,0.271-1.8,0.719-2.55c-1.492-0.514-3.191-0.725-4.965-0.53
	c-5.164,0.566-8.961,4.289-8.479,8.314c0.254,2.128,1.652,3.916,3.68,5.042c0.1,0.894-0.234,2.026-1.811,3.19
	c-0.646,0.478,2.605,1.091,5.641-1.981c0.871,0.104,1.783,0.113,2.713,0.015c4.406-0.483,7.807-3.266,8.414-6.571
	c-0.289,0.053-0.588,0.09-0.893,0.09C105.955,12.163,103.703,9.911,103.703,7.143z M103.262,11.826l-2.615,2.79
	c-0.082,0.089-0.195,0.139-0.314,0.139c-0.121,0-0.234-0.05-0.316-0.139l-2.615-2.79c-0.35-0.349-0.541-0.812-0.541-1.305
	s0.191-0.956,0.541-1.305c0.35-0.349,0.812-0.54,1.307-0.54c0.49,0,0.955,0.191,1.305,0.54c0.129,0.13,0.238,0.276,0.322,0.435
	c0.086-0.158,0.193-0.305,0.322-0.435c0.35-0.349,0.812-0.54,1.307-0.54c0.492,0,0.955,0.191,1.305,0.54
	c0.349,0.349,0.541,0.812,0.541,1.305S103.609,11.477,103.262,11.826z"/>
<path fill="#FA7B68" d="M108.721,4.123c-1.027,0-1.934,0.518-2.479,1.305c-0.34,0.488-0.539,1.078-0.539,1.715
	c0,1.665,1.354,3.02,3.02,3.02c0.314,0,0.613-0.062,0.9-0.152c1.223-0.386,2.119-1.518,2.119-2.867
	C111.742,5.478,110.387,4.123,108.721,4.123z"/>
</svg>
