<?xml version="1.0" encoding="utf-8"?>
<!-- Generator: Adobe Illustrator 15.0.0, SVG Export Plug-In . SVG Version: 6.00 Build 0)  -->
<!DOCTYPE svg PUBLIC "-//W3C//DTD SVG 1.1//EN" "http://www.w3.org/Graphics/SVG/1.1/DTD/svg11.dtd">
<svg version="1.1" id="Layer_1" xmlns="http://www.w3.org/2000/svg" xmlns:xlink="http://www.w3.org/1999/xlink" x="0px" y="0px"
	 width="55px" height="55px" viewBox="0 0 55 55" enable-background="new 0 0 55 55" xml:space="preserve">
<path fill="#FFFFFF" d="M43.521,39.633l-7.326-7.327c1.391-2.119,2.207-4.648,2.207-7.367c0-7.422-6.039-13.46-13.461-13.46
	c-7.423,0-13.463,6.038-13.463,13.46c0,7.424,6.04,13.463,13.463,13.463c2.718,0,5.247-0.816,7.366-2.207l7.326,7.327L43.521,39.633
	z M14.359,24.938c0-5.834,4.747-10.58,10.582-10.58c5.834,0,10.581,4.746,10.581,10.58c0,5.835-4.746,10.582-10.581,10.582
	C19.106,35.521,14.359,30.773,14.359,24.938z"/>
</svg>
